<?xml version="1.0" encoding="UTF-8"?>
<!-- Generated by Pixelmator Pro 3.3.11 -->
<svg width="1065" height="407" viewBox="0 0 1065 407" xmlns="http://www.w3.org/2000/svg">
    <g id="g1">
        <path id="path1" fill="#d9a441" fill-rule="evenodd" stroke="none" d="M 700.198242 33.781494 L 464.478516 283.866333 L 487.961182 283.866333 L 700.198242 58.690918 L 912.435303 283.866333 L 935.893555 283.866333 L 826.268311 167.542236 L 826.268311 107.300293 L 798.964844 107.300293 L 798.964844 138.594116 L 700.198242 33.781494 Z"/>
        <path id="path2" fill="#1f3c88" fill-rule="evenodd" stroke="none" d="M 700.198242 79.585693 L 507.646729 283.866333 L 523.729004 283.866333 L 700.198242 96.659424 L 876.643311 283.866333 L 892.725342 283.866333 L 700.198242 79.585693 Z"/>
        <path id="path3" fill="#1f3c88" fill-rule="evenodd" stroke="none" d="M 704.43042 181.713867 C 723.632324 183.769531 738.674561 199.513184 738.674561 218.473267 L 738.674561 223.47937 L 704.43042 223.47937 L 704.43042 181.713867 Z M 661.69751 223.47937 L 661.69751 218.473267 C 661.69751 199.513184 676.73999 183.769531 695.941895 181.713867 L 695.941895 223.47937 L 661.69751 223.47937 Z M 695.941895 273.636475 L 661.69751 273.636475 L 661.69751 231.629272 L 695.941895 231.629272 L 695.941895 273.636475 Z M 738.674561 273.636475 L 704.43042 273.636475 L 704.43042 231.629272 L 738.674561 231.629272 L 738.674561 273.636475 Z"/>
        <path id="path4" fill="#d9a441" fill-rule="evenodd" stroke="none" d="M 434.200439 47.034302 L 633.184814 97.771851 L 554.926025 180.819092 L 437.344482 53.588135 L 351.975586 144.180664 L 345.252441 141.399536 L 434.200439 47.034302 Z"/>
        <path id="path5" fill="#1f3c88" fill-rule="evenodd" stroke="none" d="M 434.200439 68.727173 L 359.956299 147.493774 L 366.655029 150.274902 L 434.200439 78.618286 L 542.761719 193.709106 L 547.429199 188.775513 L 434.200439 68.727173 Z"/>
        <path id="path6" fill="#d9a441" fill-rule="evenodd" stroke="none" d="M 323.027588 130.323242 L 172.967041 282.971558 L 181.358887 282.971558 L 323.027588 139.19873 L 461.52832 279.875977 L 510.984131 227.421265 L 439.206543 151.629272 L 323.027588 130.323242 Z"/>
        <path id="path7" fill="#1f3c88" fill-rule="evenodd" stroke="none" d="M 323.027588 151.169678 L 193.450684 282.971558 L 201.890869 282.971558 L 323.027588 160.045166 L 444.067383 282.971558 L 452.483398 282.971558 L 323.027588 151.169678 Z"/>
        <path id="path8" fill="#1f3c88" fill-rule="evenodd" stroke="none" d="M 322.568115 225.897705 C 333.039551 227.010132 341.262207 235.595459 341.262207 245.946045 L 341.262207 248.678833 L 322.568115 248.678833 L 322.568115 225.897705 Z M 299.279053 248.678833 L 299.279053 245.946045 C 299.279053 235.595459 307.501465 227.010132 317.973145 225.897705 L 317.973145 248.678833 L 299.279053 248.678833 Z M 317.948975 276.054932 L 299.254883 276.054932 L 299.254883 253.128662 L 317.948975 253.128662 L 317.948975 276.054932 Z M 341.262207 276.054932 L 322.568115 276.054932 L 322.568115 253.128662 L 341.262207 253.128662 L 341.262207 276.054932 Z"/>
        <path id="path9" fill="#1f3c88" fill-rule="evenodd" stroke="none" d="M 1006.171631 275.81311 C 1020.681885 363.57605 839.66626 344.446777 645.204102 321.327026 C 504.212646 304.543457 193.499023 266.067017 77.392578 353.733276 C 219.956055 289.138428 485.808838 314.676514 640.802734 336.514404 C 920.077393 375.90979 1077.828369 369.283447 1006.171631 275.81311"/>
        <path id="path10" fill="#d9a441" fill-rule="evenodd" stroke="none" d="M 1043.898438 311.556763 C 1060.270996 410.686157 855.869385 389.065796 636.256104 362.947388 C 477.054199 344.011353 131.39502 307.784058 0.246338 406.792603 C 161.237793 333.830078 456.256104 355.450317 631.274414 380.117798 C 946.679443 424.591858 1124.841797 417.11908 1043.898438 311.556763"/>
        <path id="path11" fill="#1f3c88" fill-rule="evenodd" stroke="none" d="M 946.341064 262.197632 C 947.937256 263.334229 949.944336 264.881958 950.427979 265.728394 C 952.580322 269.428589 959.52124 270.081543 962.495605 267.542236 C 963.342041 266.81665 964.914063 265.849365 964.914063 265.123779 C 964.914063 264.398315 965.518799 263.914673 965.034912 262.826416 C 964.55127 261.738159 963.463135 260.528931 963.463135 260.528931 C 963.463135 260.528931 962.858398 260.407959 962.979492 259.319702 C 963.100342 258.231445 962.858398 258.110474 963.583984 257.38501 C 964.30957 256.659546 964.672363 256.417725 965.156006 255.571289 C 965.639648 254.724854 965.881348 254.966675 966.123291 253.636475 C 966.365234 252.306396 966.727783 251.822754 966.606934 251.097168 C 966.486084 250.371704 966.606934 250.008911 966.244141 248.678833 C 965.881348 247.348755 965.760498 246.502319 965.034912 246.018677 C 964.30957 245.534912 964.188477 245.293091 963.583984 244.930298 C 962.979492 244.567627 962.495605 244.204834 962.495605 244.204834 C 962.495605 244.204834 961.407471 242.270142 961.770264 241.302734 C 962.133057 240.335449 962.737549 239.851807 962.737549 239.247192 C 962.737549 238.642578 962.858398 238.037964 963.221191 237.43335 C 963.583984 236.828735 963.946777 236.224243 964.43042 235.498657 C 964.914063 234.773193 965.639648 230.299194 965.881348 229.210938 C 966.123291 228.122559 966.244141 226.79248 966.123291 225.704224 C 966.002441 224.615967 966.365234 223.64856 965.639648 222.681274 C 964.914063 221.713867 964.914063 221.472046 963.100342 220.62561 C 961.286621 219.779175 960.681885 220.020996 959.956543 219.174561 C 959.230957 218.328125 958.989014 218.207275 958.989014 217.239868 C 958.989014 216.272583 958.868164 215.90979 959.351807 214.337891 C 959.835449 212.765869 959.7146 212.886841 960.681885 211.677612 C 961.649414 210.468384 961.52832 210.589355 962.858398 209.501099 C 964.188477 208.412842 964.672363 201.157715 965.034912 199.851685 C 965.397705 198.521606 965.639648 195.9823 965.397705 194.652222 C 965.156006 193.322144 964.914063 191.629272 964.30957 190.178223 C 963.704834 188.727173 964.188477 188.968994 962.979492 187.759888 C 961.770264 186.550659 961.407471 186.187866 960.198242 185.946045 C 958.989014 185.704224 957.538086 185.583252 956.93335 185.220581 C 956.328857 184.857788 955.845215 184.857788 955.603271 184.253174 C 955.361572 183.64856 955.482422 183.890381 955.119629 182.802124 C 954.756836 181.713867 954.635986 180.988403 954.87793 179.779175 C 955.119629 178.569946 954.998779 178.449097 955.724365 176.635254 C 956.449707 174.821533 957.900879 167.687256 957.900879 167.687256 C 957.900879 167.687256 958.626221 165.873535 958.747314 165.268921 C 958.868164 164.664307 959.59375 164.059692 958.989014 162.608643 C 958.384521 161.157593 957.658936 160.432129 957.658936 160.432129 C 957.658936 160.432129 956.8125 159.706665 956.8125 158.739258 C 956.8125 157.771973 956.8125 158.255615 957.175293 157.288208 C 957.538086 156.320923 957.296143 156.441772 958.021729 155.595337 C 958.747314 154.748901 958.747314 154.869873 959.472656 154.023438 C 960.198242 153.177002 960.319092 153.539795 960.923828 152.572388 C 961.52832 151.60498 961.407471 151.967773 961.770264 150.637695 C 962.133057 149.307617 962.253906 149.670288 962.253906 148.21936 C 962.253906 146.768311 962.374756 146.647339 961.770264 145.800903 C 961.165527 144.954468 959.59375 143.866211 959.59375 143.866211 C 959.59375 143.866211 958.142578 140.359619 958.384521 139.513184 C 958.626221 138.666748 958.505371 138.182983 958.868164 137.215698 C 959.230957 136.248291 959.472656 135.522827 959.351807 134.918213 C 959.230957 134.313599 959.110107 133.708984 958.263672 133.225342 C 957.417236 132.741699 956.449707 132.741699 955.966064 132.016113 C 955.482422 131.290649 956.328857 122.366821 956.570801 119.948486 C 956.8125 117.530029 957.054443 115.716309 957.054443 114.628052 C 957.054443 113.539673 956.208008 111.846924 956.208008 111.846924 C 956.208008 111.846924 951.129395 109.428467 950.403809 108.219238 C 949.678223 107.010132 949.920166 107.010132 949.19458 105.800903 C 948.469238 104.591675 947.985352 102.656982 947.985352 102.656982 C 947.985352 102.656982 947.743652 100.238647 947.743652 98.787598 C 947.743652 97.336548 947.985352 96.369263 948.227295 95.160034 C 948.469238 93.950806 948.469238 93.225342 949.19458 91.532471 C 949.920166 89.8396 950.645752 89.355957 951.129395 87.663086 C 951.613037 85.970215 952.09668 85.002808 951.613037 83.068115 C 951.129395 81.133423 946.776367 68.823853 946.29248 66.405518 C 945.808838 63.987061 945.325195 63.261597 944.841553 60.60144 C 944.35791 57.941162 944.115967 56.973755 943.874268 55.039063 C 943.632324 53.10437 944.115967 55.280884 943.632324 51.169678 C 943.148682 47.058472 943.390625 47.542114 942.665039 44.664307 C 941.939453 41.762207 942.181396 41.762207 941.455811 39.585693 C 940.730225 37.409058 939.762939 29.452637 940.004883 28.243408 C 940.246582 27.034302 940.246582 26.792358 939.762939 24.615845 C 939.279297 22.439331 938.312012 20.74646 938.312012 20.74646 L 937.344482 17.84436 L 936.377197 15.184204 C 936.377197 15.184204 935.289063 8.968994 935.289063 8.606201 C 935.289063 8.243408 935.409912 7.880737 935.240479 7.155151 C 935.071289 6.429688 934.87793 5.655762 934.756836 5.099487 C 934.635986 4.567505 934.394043 3.406738 934.394043 3.406738 L 932.918945 1.036621 L 931.419678 3.745239 C 931.419678 3.745239 931.177734 4.881836 931.056885 5.43811 C 930.936035 5.970215 930.742432 6.768188 930.573242 7.493774 C 930.403809 8.219238 930.500488 8.582031 930.500488 8.944824 C 930.500488 9.307495 929.412354 15.522827 929.412354 15.522827 L 928.445068 18.182983 L 927.477539 21.085083 C 927.477539 21.085083 926.510254 22.777954 926.026611 24.954468 C 925.542969 27.130981 925.542969 27.372803 925.784668 28.582031 C 926.026611 29.79126 925.059326 37.747681 924.33374 39.924194 C 923.608154 42.10083 923.850098 42.10083 923.124512 45.002808 C 922.398926 47.904907 922.640869 47.421265 922.157227 51.508301 C 921.673584 55.619507 922.157227 53.442993 921.915283 55.377686 C 921.673584 57.312378 921.431641 58.279785 920.947998 60.939941 C 920.464355 63.60022 919.980713 64.325684 919.49707 66.744019 C 919.013184 69.162476 914.660156 81.472046 914.176514 83.406738 C 913.692871 85.341431 914.176514 86.308716 914.660156 88.001587 C 915.143799 89.694458 915.869385 90.178223 916.594971 91.871094 C 917.320313 93.563965 917.320313 94.289429 917.562256 95.498657 C 917.804199 96.707764 918.045898 97.675171 918.045898 99.126221 C 918.045898 100.577271 917.804199 102.995605 917.804199 102.995605 C 917.804199 102.995605 917.320313 104.930298 916.594971 106.139526 C 915.869385 107.348633 916.111328 107.348633 915.385742 108.557861 C 914.660156 109.76709 909.581543 112.185425 909.581543 112.185425 C 909.581543 112.185425 908.735107 113.878296 908.735107 114.966553 C 908.735107 116.05481 908.977051 117.868652 909.21875 120.286987 C 909.460693 122.705444 910.307129 131.629272 909.823486 132.354736 C 909.339844 133.0802 908.372314 133.0802 907.525879 133.563965 C 906.679443 134.047607 906.558594 134.652222 906.437744 135.256836 C 906.316895 135.861328 906.558594 136.586914 906.921387 137.554199 C 907.28418 138.521606 907.16333 139.005249 907.405029 139.851685 C 907.646973 140.69812 906.195801 144.204834 906.195801 144.204834 C 906.195801 144.204834 904.624023 145.293091 904.019287 146.139526 C 903.414795 146.985962 903.535645 147.106812 903.535645 148.557861 C 903.535645 150.008911 903.656494 149.646118 904.019287 150.976318 C 904.38208 152.306396 904.26123 151.943604 904.865723 152.911011 C 905.470459 153.878296 905.591309 153.515625 906.316895 154.362061 C 907.042236 155.208374 907.042236 155.087524 907.767822 155.93396 C 908.493408 156.780396 908.251465 156.659424 908.614258 157.626831 C 908.977051 158.594116 908.977051 158.110474 908.977051 159.077881 C 908.977051 160.045166 908.130615 160.770752 908.130615 160.770752 C 908.130615 160.770752 907.405029 161.496216 906.800537 162.947266 C 906.195801 164.398315 906.921387 165.00293 907.042236 165.607422 C 907.16333 166.212036 907.888672 168.025879 907.888672 168.025879 C 907.888672 168.025879 909.339844 175.160034 910.065186 176.973877 C 910.790771 178.787598 910.669922 178.908569 910.911621 180.117798 C 911.153564 181.326904 911.032715 182.05249 910.669922 183.140747 C 910.307129 184.229004 910.427979 183.987183 910.186279 184.591797 C 909.944336 185.196411 909.460693 185.196411 908.856201 185.559082 C 908.251465 185.921875 906.800537 186.042847 905.591309 186.284668 C 904.38208 186.526489 904.019287 186.88916 902.810059 188.098389 C 901.60083 189.307617 902.084717 189.065796 901.47998 190.516846 C 900.875488 191.967773 900.633545 193.660645 900.391846 194.990845 C 900.149902 196.320923 900.391846 198.860229 900.754395 200.190308 C 901.117188 201.520386 901.60083 208.775513 902.931152 209.8396 C 904.26123 210.927979 904.140137 210.807007 905.107666 212.016235 C 906.074951 213.225342 905.954102 213.104492 906.437744 214.676392 C 906.921387 216.248413 906.800537 216.611084 906.800537 217.578491 C 906.800537 218.545776 906.558594 218.666748 905.833008 219.513184 C 905.107666 220.359619 904.50293 220.117798 902.689209 220.964233 C 900.875488 221.810669 900.875488 222.05249 900.149902 223.019775 C 899.424316 223.987183 899.787109 224.95459 899.66626 226.042847 C 899.54541 227.131104 899.66626 228.461182 899.908203 229.549438 C 900.149902 230.637695 900.875488 235.111694 901.359131 235.83728 C 901.842773 236.562744 902.205566 237.167358 902.568359 237.771973 C 902.931152 238.376587 903.052002 238.981201 903.052002 239.585693 C 903.052002 240.190308 903.656494 240.674072 904.019287 241.641357 C 904.164551 242.05249 904.067627 242.632935 903.898438 243.164917 L 921.359131 261.713867 C 923.511475 260.988403 926.510254 260.504761 929.702637 260.287109 L 929.702637 270.565186 L 936.038574 277.28833 L 936.038574 260.2146 C 940.464355 260.093628 944.43042 260.819092 946.341064 262.197632"/>
        <path id="path12" fill="#1f3c88" fill-rule="evenodd" stroke="none" d="M 212.217285 235.571167 L 212.531738 235.78894 L 227.864258 220.190308 L 227.695068 220.093628 C 227.162842 219.779175 226.727539 219.440674 226.727539 219.440674 C 226.727539 219.440674 225.760254 217.699341 226.074707 216.828735 C 226.388916 215.95813 226.945313 215.522827 226.945313 214.990845 C 226.945313 214.45874 227.041992 213.902588 227.380615 213.370483 C 227.695068 212.838501 228.033447 212.282227 228.46875 211.629272 C 228.904053 210.976318 229.557129 206.961792 229.774658 205.994385 C 229.992432 205.0271 230.113281 203.817871 229.992432 202.850586 C 229.871582 201.883179 230.210205 201.012573 229.557129 200.141968 C 228.904053 199.271362 228.904053 199.053711 227.283936 198.303955 C 225.663574 197.554321 225.107178 197.771973 224.454346 196.998047 C 223.80127 196.248413 223.58374 196.127441 223.58374 195.256836 C 223.58374 194.38623 223.462891 194.071777 223.898193 192.64502 C 224.333496 191.24231 224.236572 191.338989 225.083008 190.250732 C 225.953613 189.162476 225.832764 189.283447 227.041992 188.29187 C 228.227051 187.324585 228.662354 180.819092 229.000977 179.609863 C 229.315186 178.424927 229.532959 176.151611 229.315186 174.942383 C 229.097656 173.757446 228.879883 172.233765 228.3479 170.927856 C 227.815918 169.621948 228.227051 169.8396 227.162842 168.751343 C 226.074707 167.663086 225.760254 167.348755 224.671875 167.131104 C 223.58374 166.91333 222.277832 166.81665 221.74585 166.478027 C 221.213623 166.163696 220.77832 166.163696 220.560791 165.607422 C 220.343018 165.075439 220.439697 165.293091 220.125488 164.301514 C 219.786865 163.334229 219.690186 162.681274 219.907715 161.592896 C 220.125488 160.504639 220.028564 160.407959 220.657471 158.787598 C 221.310303 157.167358 222.616455 150.758667 222.616455 150.758667 C 222.616455 150.758667 223.269287 149.138306 223.365967 148.582031 C 223.487061 148.050049 224.115723 147.493774 223.58374 146.187866 C 223.051758 144.881958 222.398682 144.229004 222.398682 144.229004 C 222.398682 144.229004 221.648926 143.57605 221.648926 142.705444 C 221.648926 141.834839 221.648926 142.270142 221.963379 141.399414 C 222.277832 140.528809 222.060059 140.64978 222.713135 139.875854 C 223.365967 139.126221 223.365967 139.2229 224.019043 138.473267 C 224.671875 137.723511 224.768799 138.037964 225.324951 137.167358 C 225.856934 136.296753 225.760254 136.635254 226.074707 135.426025 C 226.388916 134.241089 226.51001 134.55542 226.51001 133.249512 C 226.51001 131.943604 226.606689 131.846924 226.074707 131.072998 C 225.54248 130.323242 224.115723 129.331787 224.115723 129.331787 C 224.115723 129.331787 222.809814 126.187866 223.027588 125.43811 C 223.245117 124.688477 223.124268 124.253174 223.462891 123.382568 C 223.7771 122.511963 223.994873 121.859009 223.898193 121.326904 C 223.7771 120.794922 223.68042 120.238647 222.930664 119.803345 C 222.181152 119.368042 221.310303 119.368042 220.875 118.715088 C 220.439697 118.062134 221.189453 110.033081 221.407227 107.880737 C 221.624756 105.704224 221.842529 104.083862 221.842529 103.116455 C 221.842529 102.14917 221.092773 100.62561 221.092773 100.62561 C 221.092773 100.62561 216.546143 98.449097 215.893311 97.360718 C 215.240234 96.272461 215.458008 96.272461 214.804932 95.184204 C 214.1521 94.095947 213.716797 92.378906 213.716797 92.378906 C 213.716797 92.378906 213.499023 90.202393 213.499023 88.920654 C 213.499023 87.614746 213.716797 86.744019 213.934326 85.679932 C 214.1521 84.591675 214.1521 83.938721 214.804932 82.415161 C 215.458008 80.891602 216.11084 80.456299 216.546143 78.956909 C 216.981445 77.43335 217.416748 76.562744 216.981445 74.845703 C 216.546143 73.10437 212.652588 62.052368 212.217285 59.875854 C 211.781982 57.699341 211.34668 57.046387 210.911377 54.676392 C 210.476074 52.282104 210.258301 51.411499 210.040771 49.694458 C 209.822998 47.953247 210.258301 49.912109 209.822998 46.236206 C 209.387695 42.560303 209.605469 42.971436 208.952393 40.383667 C 208.299561 37.771851 208.51709 37.796021 207.864258 35.837158 C 207.211182 33.878296 206.340576 26.719849 206.55835 25.655762 C 206.775879 24.567505 206.775879 24.349854 206.340576 22.390991 C 205.905273 20.432129 205.034668 18.932739 205.034668 18.932739 L 204.164063 16.320801 L 203.293457 13.926636 C 203.293457 13.926636 202.326172 8.34021 202.326172 8.025757 C 202.326172 7.711426 202.447021 7.372803 202.277832 6.719849 C 202.108398 6.066895 201.939209 5.365601 201.842529 4.881836 C 201.745605 4.398193 201.528076 3.358276 201.528076 3.358276 L 200.173828 0.939941 L 198.81958 3.358276 C 198.81958 3.358276 198.601807 4.398193 198.505127 4.881836 C 198.384277 5.365601 198.239014 6.066895 198.069824 6.719849 C 197.900391 7.372803 198.021484 7.687256 198.021484 8.025757 C 198.021484 8.34021 197.053955 13.926636 197.053955 13.926636 L 196.18335 16.320801 L 195.312744 18.932739 C 195.312744 18.932739 194.442139 20.456299 194.006836 22.390991 C 193.571533 24.349854 193.571533 24.567505 193.789307 25.655762 C 194.006836 26.744019 193.13623 33.902466 192.483398 35.837158 C 191.830322 37.796021 192.048096 37.796021 191.39502 40.383667 C 190.742188 42.995605 190.959717 42.560303 190.524414 46.236206 C 190.089111 49.912109 190.524414 47.977417 190.306885 49.694458 C 190.089111 51.435669 189.871338 52.306396 189.436035 54.676392 C 189.000732 57.070557 188.56543 57.699341 188.130127 59.875854 C 187.694824 62.052368 183.80127 73.10437 183.365967 74.845703 C 182.930664 76.586914 183.365967 77.45752 183.80127 78.956909 C 184.236572 80.480469 184.889648 80.915771 185.54248 82.415161 C 186.195557 83.938721 186.195557 84.591675 186.413086 85.680054 C 186.630859 86.768311 186.848389 87.638916 186.848389 88.920654 C 186.848389 90.226563 186.630859 92.378906 186.630859 92.378906 C 186.630859 92.378906 186.195557 94.120117 185.54248 95.184204 C 184.889648 96.272461 185.107178 96.272461 184.454346 97.360718 C 183.80127 98.449097 179.254639 100.62561 179.254639 100.62561 C 179.254639 100.62561 178.505127 102.14917 178.505127 103.116455 C 178.505127 104.083862 178.722656 105.728394 178.94043 107.880737 C 179.157959 110.057251 179.907715 118.062134 179.472412 118.715088 C 179.037109 119.368042 178.166504 119.368042 177.416748 119.803345 C 176.666992 120.238647 176.546143 120.770752 176.449463 121.326904 C 176.352783 121.859009 176.570313 122.511963 176.884766 123.382568 C 177.199219 124.253174 177.102295 124.688477 177.320068 125.438232 C 177.537598 126.187866 176.231689 129.331787 176.231689 129.331787 C 176.231689 129.331787 174.829102 130.299072 174.272949 131.072998 C 173.740723 131.822632 173.837646 131.943604 173.837646 133.249512 C 173.837646 134.55542 173.934326 134.216919 174.272949 135.426025 C 174.587158 136.611084 174.490479 136.296753 175.022461 137.167358 C 175.554688 138.037964 175.675537 137.699341 176.328613 138.473267 C 176.981445 139.2229 176.981445 139.126221 177.634521 139.875854 C 178.287354 140.62561 178.069824 140.528931 178.384033 141.399536 C 178.698486 142.270142 178.698486 141.834839 178.698486 142.705444 C 178.698486 143.57605 177.94873 144.229004 177.94873 144.229004 C 177.94873 144.229004 177.295898 144.881958 176.763916 146.187866 C 176.231689 147.493774 176.884766 148.025879 176.981445 148.582031 C 177.102295 149.114136 177.731201 150.758667 177.731201 150.758667 C 177.731201 150.758667 179.037109 157.167358 179.689941 158.787598 C 180.343018 160.407959 180.222168 160.528931 180.439697 161.593018 C 180.657471 162.681274 180.536377 163.334229 180.222168 164.301514 C 179.907715 165.268921 180.004395 165.05127 179.786865 165.607544 C 179.569092 166.139526 179.133789 166.139526 178.601807 166.478149 C 178.069824 166.79248 176.763916 166.913452 175.675537 167.131104 C 174.587158 167.348755 174.272949 167.663086 173.18457 168.751343 C 172.096436 169.8396 172.531738 169.621948 171.999512 170.927979 C 171.467529 172.233887 171.25 173.757446 171.032227 174.942383 C 170.814697 176.127441 171.032227 178.400757 171.34668 179.609863 C 171.661133 180.794922 172.096436 187.300293 173.30542 188.29187 C 174.490479 189.259277 174.393799 189.162476 175.264404 190.250732 C 176.13501 191.338989 176.01416 191.21814 176.449463 192.64502 C 176.884766 194.047607 176.763672 194.38623 176.763672 195.256836 C 176.763672 196.127441 176.546143 196.224121 175.893066 196.998047 C 175.240234 197.747803 174.708252 197.530151 173.063721 198.303955 C 171.443359 199.053711 171.443359 199.271362 170.790283 200.141968 C 170.137451 201.012573 170.476074 201.883179 170.35498 202.850586 C 170.258301 203.817871 170.35498 205.0271 170.572754 205.994385 C 170.790283 206.961792 171.443359 210.976318 171.878662 211.629272 C 172.313965 212.282227 172.628418 212.814331 172.967041 213.370483 C 173.28125 213.902588 173.402344 214.45874 173.402344 214.990845 C 173.402344 215.522827 173.934326 215.95813 174.272949 216.828735 C 174.587158 217.699341 173.619873 219.440674 173.619873 219.440674 C 173.619873 219.440674 173.18457 219.755005 172.652588 220.093628 C 172.120605 220.407959 171.999512 220.62561 171.34668 221.060913 C 170.693604 221.496216 170.596924 222.245972 170.258301 223.4552 C 169.943848 224.640137 170.040771 224.97876 169.943848 225.631714 C 169.847168 226.284668 170.161621 226.719971 170.37915 227.905029 C 170.596924 229.089966 170.814453 228.872314 171.249756 229.64624 C 171.685059 230.395874 171.999512 230.613525 172.652588 231.266479 C 173.30542 231.919556 173.087891 232.016235 173.18457 233.007813 C 173.30542 233.975098 172.749268 234.096069 172.749268 234.096069 C 172.749268 234.096069 171.781982 235.184326 171.34668 236.151611 C 170.911377 237.119019 171.443359 237.554321 171.443359 238.207275 C 171.443359 241.641357 179.786865 241.883179 182.930664 240.698242 C 184.671875 240.045288 183.68042 240.045288 184.454346 238.73938 C 184.865479 238.062134 186.364746 236.853027 187.718994 235.86145 C 189.363525 234.652222 193.1604 233.878418 197.320068 233.588135 L 197.320068 251.266479 L 203.003174 245.486572 L 203.003174 233.515625 C 206.921143 233.684937 210.500244 234.337891 212.217285 235.571167"/>
        <path id="path13" fill="#1f3c88" fill-rule="evenodd" stroke="none" d="M 287.380615 159.658203 C 287.235596 159.489014 287.066162 159.319702 286.776123 159.150391 C 286.026367 158.715088 285.155762 158.715088 284.720459 158.062134 C 284.285156 157.40918 285.034912 149.380127 285.252441 147.227783 C 285.469971 145.05127 285.687744 143.430908 285.687744 142.463623 C 285.687744 141.496216 284.937988 139.972656 284.937988 139.972656 C 284.937988 139.972656 280.391602 137.796143 279.738525 136.707886 C 279.085693 135.619507 279.303223 135.619507 278.650146 134.53125 C 277.997314 133.442993 277.562012 131.725952 277.562012 131.725952 C 277.562012 131.725952 277.344238 129.549438 277.344238 128.2677 C 277.344238 126.961792 277.562012 126.091187 277.779541 125.0271 C 277.997314 123.938843 277.997314 123.285767 278.650146 121.786377 C 279.303223 120.262817 279.956299 119.827515 280.391602 118.328125 C 280.826904 116.804565 281.262207 115.93396 280.826904 114.216919 C 280.391602 112.475708 276.497803 101.423706 276.0625 99.24707 C 275.627197 97.070557 275.191895 96.417603 274.756592 94.047607 C 274.321289 91.653442 274.10376 90.782837 273.885986 89.065796 C 273.668457 87.324463 274.10376 89.283447 273.668457 85.607422 C 273.233154 81.931519 273.450684 82.342651 272.797852 79.755005 C 272.144775 77.143188 272.362549 77.167358 271.709473 75.208374 C 271.056641 73.249512 270.186035 66.091187 270.403564 65.0271 C 270.621338 63.938721 270.621338 63.721069 270.186035 61.762207 C 269.750732 59.803345 268.879883 58.303955 268.879883 58.303955 L 268.009277 55.692139 L 267.138672 53.297852 C 267.138672 53.297852 266.171387 47.711426 266.171387 47.397095 C 266.171387 47.082642 266.292236 46.744141 266.123047 46.091064 C 265.953857 45.43811 265.808594 44.736816 265.687744 44.253174 C 265.591064 43.769531 265.373291 42.729614 265.373291 42.729614 L 264.019043 40.311157 L 262.664795 42.729614 C 262.664795 42.729614 262.447021 43.769531 262.350342 44.253174 C 262.229492 44.736816 262.084473 45.43811 261.915039 46.091064 C 261.74585 46.744141 261.866699 47.058472 261.866699 47.397095 C 261.866699 47.711426 260.899414 53.297852 260.899414 53.297852 L 260.028809 55.692139 L 259.158203 58.303955 C 259.158203 58.303955 258.287598 59.827515 257.852295 61.762207 C 257.416992 63.721069 257.416992 63.938721 257.634521 65.0271 C 257.852295 66.115356 256.981689 73.273682 256.328613 75.208374 C 255.675537 77.167358 255.893311 77.167358 255.240234 79.755005 C 254.587402 82.366821 254.804932 81.931519 254.369629 85.607422 C 253.934326 89.283447 254.369629 87.348755 254.1521 89.065796 C 253.934326 90.807007 253.716797 91.677612 253.281494 94.047607 C 252.846191 96.441772 252.410889 97.070557 251.975586 99.24707 C 251.540283 101.423706 247.646729 112.475708 247.211182 114.216919 C 246.775879 115.95813 247.211182 116.828735 247.646729 118.328125 C 248.082031 119.851685 248.734863 120.286987 249.387939 121.786377 C 250.040771 123.310059 250.040771 123.963013 250.258545 125.0271 C 250.476074 126.115356 250.693848 126.985962 250.693848 128.2677 C 250.693848 129.573608 250.476074 131.725952 250.476074 131.725952 C 250.476074 131.725952 250.040771 133.467163 249.387939 134.53125 C 248.734863 135.619507 248.952393 135.619507 248.299561 136.707886 C 247.646484 137.796143 243.100098 139.972656 243.100098 139.972656 C 243.100098 139.972656 242.350342 141.496216 242.350342 142.463623 C 242.350342 143.430908 242.568115 145.075439 242.785645 147.227783 C 243.003418 149.404297 243.75293 157.40918 243.317627 158.062134 C 242.882324 158.715088 242.011719 158.715088 241.261963 159.150391 C 240.512451 159.585693 240.391357 160.117798 240.294678 160.67395 C 240.173828 161.206055 240.415527 161.859009 240.72998 162.729614 C 241.044434 163.60022 240.947754 164.035522 241.165283 164.785278 C 241.383057 165.534912 240.077148 168.678833 240.077148 168.678833 C 240.077148 168.678833 238.674316 169.646118 238.118164 170.420044 C 237.586182 171.1698 237.682861 171.290649 237.682861 172.596558 C 237.682861 173.902588 237.779541 173.563965 238.118164 174.773193 C 238.432617 175.95813 238.335938 175.643799 238.86792 176.514404 C 239.399902 177.38501 239.520752 177.046387 240.173828 177.820313 C 240.82666 178.569946 240.82666 178.473267 241.479736 179.223022 C 242.132813 179.972656 241.915039 179.875977 242.229492 180.746582 C 242.543701 181.617188 242.543701 181.181885 242.543701 182.05249 C 242.543701 182.923096 241.794189 183.57605 241.794189 183.57605 C 241.794189 183.57605 241.141113 184.229004 240.609131 185.534912 C 240.077148 186.84082 240.72998 187.372925 240.82666 187.929077 C 240.947754 188.461182 241.576416 190.105713 241.576416 190.105713 C 241.576416 190.105713 242.882324 196.514404 243.5354 198.134766 C 244.188232 199.755005 244.067383 199.875977 244.285156 200.940063 C 244.502686 202.02832 244.381836 202.681274 244.067383 203.64856 L 244.019043 203.793701 L 287.380615 159.658203 Z"/>
    </g>
</svg>
